<?xml version="1.0" encoding="UTF-8" standalone="no"?>
<!-- Created with Inkscape (http://www.inkscape.org/) -->

<svg
   xmlns:dc="http://purl.org/dc/elements/1.1/"
   xmlns:cc="http://creativecommons.org/ns#"
   xmlns:rdf="http://www.w3.org/1999/02/22-rdf-syntax-ns#"
   xmlns:svg="http://www.w3.org/2000/svg"
   xmlns="http://www.w3.org/2000/svg"
   xmlns:sodipodi="http://sodipodi.sourceforge.net/DTD/sodipodi-0.dtd"
   xmlns:inkscape="http://www.inkscape.org/namespaces/inkscape"
   width="744.09448819"
   height="1052.3622047"
   id="svg3013"
   version="1.1"
   inkscape:version="0.48.4 r9939"
   sodipodi:docname="1.svg">
  <defs
     id="defs3015" />
  <sodipodi:namedview
     id="base"
     pagecolor="#ffffff"
     bordercolor="#666666"
     borderopacity="1.0"
     inkscape:pageopacity="0.0"
     inkscape:pageshadow="2"
     inkscape:zoom="8"
     inkscape:cx="243.91753"
     inkscape:cy="902.69858"
     inkscape:document-units="px"
     inkscape:current-layer="layer1"
     showgrid="false"
     inkscape:window-width="1855"
     inkscape:window-height="1056"
     inkscape:window-x="65"
     inkscape:window-y="24"
     inkscape:window-maximized="1" />
  <metadata
     id="metadata3018">
    <rdf:RDF>
      <cc:Work
         rdf:about="">
        <dc:format>image/svg+xml</dc:format>
        <dc:type
           rdf:resource="http://purl.org/dc/dcmitype/StillImage" />
        <dc:title></dc:title>
      </cc:Work>
    </rdf:RDF>
  </metadata>
  <g
     inkscape:label="Layer 1"
     inkscape:groupmode="layer"
     id="layer1">
    <text
       xml:space="preserve"
       style="font-size:40px;font-style:normal;font-variant:normal;font-weight:normal;font-stretch:normal;line-height:125%;letter-spacing:0px;word-spacing:0px;fill:#000000;fill-opacity:1;stroke:none;font-family:Ubuntu;-inkscape-font-specification:Ubuntu"
       x="140"
       y="143.79076"
       id="text3021"
       sodipodi:linespacing="125%"><tspan
         sodipodi:role="line"
         id="tspan3023"
         x="140"
         y="143.79076" /></text>
    <path
       style="fill:none;stroke:#000000;stroke-width:1px;stroke-linecap:butt;stroke-linejoin:miter;stroke-opacity:1"
       d="m 225.75,126.23718 3.125,0.25 2.625,1.625 1,3.25 -0.625,2.75 -2.375,2.125 -3.125,0.5 -2.875,-1.125 -1.375,-2.125 -0.375,-3.625 0.625,-3.5 2.5,-5.25 3.625,-4 4.625,-2.75 6.125,-1.375 6.5,0.625 6.125,1.875 6,5.375 3.125,6.25 0.875,6.875 -1.5,5.625 -3.375,6 -5.125,5.5 -12.875,11.5 -9.125,9.25 22.375,0.125 3.875,-0.375 0.875,-0.375 0.75,-1.5 0.875,-3.5 0.625,-3.875 2.5,0 -2.75,17.25 -37.125,0 0,-2.125 0.375,-0.875 22,-24.375 4,-5.625 2.625,-5.25 1.75,-5.625 0.125,-5.375 -1,-4.375 -2,-4.25 -3.25,-3.375 -3.5,-1.625 -3.625,-0.5 -3.625,0.5 -3.5,1.375 -3.25,2.5 -1.75,2.875 z"
       id="path3050"
       inkscape:connector-curvature="0" />
  </g>
</svg>