<?xml version="1.0" encoding="UTF-8" standalone="no"?>
<!-- Created with Inkscape (http://www.inkscape.org/) -->

<svg
   xmlns:dc="http://purl.org/dc/elements/1.1/"
   xmlns:cc="http://creativecommons.org/ns#"
   xmlns:rdf="http://www.w3.org/1999/02/22-rdf-syntax-ns#"
   xmlns:svg="http://www.w3.org/2000/svg"
   xmlns="http://www.w3.org/2000/svg"
   xmlns:sodipodi="http://sodipodi.sourceforge.net/DTD/sodipodi-0.dtd"
   xmlns:inkscape="http://www.inkscape.org/namespaces/inkscape"
   width="744.09448819"
   height="1052.3622047"
   id="svg2"
   version="1.1"
   inkscape:version="0.48.4 r9939"
   sodipodi:docname="New document 1">
  <defs
     id="defs4" />
  <sodipodi:namedview
     id="base"
     pagecolor="#ffffff"
     bordercolor="#666666"
     borderopacity="1.0"
     inkscape:pageopacity="0.0"
     inkscape:pageshadow="2"
     inkscape:zoom="22.4"
     inkscape:cx="281.38536"
     inkscape:cy="851.91871"
     inkscape:document-units="px"
     inkscape:current-layer="layer1"
     showgrid="false"
     inkscape:window-width="1855"
     inkscape:window-height="1056"
     inkscape:window-x="65"
     inkscape:window-y="24"
     inkscape:window-maximized="1" />
  <metadata
     id="metadata7">
    <rdf:RDF>
      <cc:Work
         rdf:about="">
        <dc:format>image/svg+xml</dc:format>
        <dc:type
           rdf:resource="http://purl.org/dc/dcmitype/StillImage" />
        <dc:title></dc:title>
      </cc:Work>
    </rdf:RDF>
  </metadata>
  <g
     inkscape:label="Layer 1"
     inkscape:groupmode="layer"
     id="layer1">
    <g
       style="font-size:40px;font-style:normal;font-weight:normal;line-height:125%;letter-spacing:0px;word-spacing:0px;fill:#000000;fill-opacity:1;stroke:none;font-family:Sans"
       id="text2985">
      <path
         d="m 267.17355,180.34488 15.48828,0 0,3.32031 -11.875,0 0,7.14844 c 0.57291,-0.19529 1.14583,-0.33852 1.71875,-0.42969 0.57291,-0.10415 1.14583,-0.15623 1.71875,-0.15625 3.2552,2e-5 5.83332,0.89195 7.73438,2.67578 1.90102,1.78387 2.85154,4.19923 2.85156,7.2461 -2e-5,3.13802 -0.97658,5.57943 -2.92969,7.32422 -1.95314,1.73177 -4.70704,2.59765 -8.26171,2.59765 -1.22397,0 -2.47397,-0.10417 -3.75,-0.3125 -1.26303,-0.20833 -2.57162,-0.52083 -3.92579,-0.9375 l 0,-3.96484 c 1.17188,0.63802 2.38281,1.11328 3.63282,1.42578 1.24999,0.3125 2.5716,0.46875 3.96484,0.46875 2.25259,0 4.03644,-0.59245 5.35156,-1.77734 1.31509,-1.18489 1.97264,-2.79297 1.97266,-4.82422 -2e-5,-2.03124 -0.65757,-3.63931 -1.97266,-4.82422 -1.31512,-1.18488 -3.09897,-1.77733 -5.35156,-1.77735 -1.0547,2e-5 -2.10938,0.11721 -3.16406,0.35157 -1.04167,0.23439 -2.10938,0.59897 -3.20313,1.09375 l 0,-14.64844"
         style=""
         id="path2990" />
    </g>
  </g>
</svg>
