<?xml version="1.0" encoding="UTF-8" standalone="no"?>
<!-- Created with Inkscape (http://www.inkscape.org/) -->

<svg
   xmlns:dc="http://purl.org/dc/elements/1.1/"
   xmlns:cc="http://creativecommons.org/ns#"
   xmlns:rdf="http://www.w3.org/1999/02/22-rdf-syntax-ns#"
   xmlns:svg="http://www.w3.org/2000/svg"
   xmlns="http://www.w3.org/2000/svg"
   xmlns:sodipodi="http://sodipodi.sourceforge.net/DTD/sodipodi-0.dtd"
   xmlns:inkscape="http://www.inkscape.org/namespaces/inkscape"
   width="744.09448819"
   height="1052.3622047"
   id="svg2"
   version="1.1"
   inkscape:version="0.48.4 r9939"
   sodipodi:docname="5.svg">
  <defs
     id="defs4" />
  <sodipodi:namedview
     id="base"
     pagecolor="#ffffff"
     bordercolor="#666666"
     borderopacity="1.0"
     inkscape:pageopacity="0.0"
     inkscape:pageshadow="2"
     inkscape:zoom="22.4"
     inkscape:cx="281.38536"
     inkscape:cy="859.06157"
     inkscape:document-units="px"
     inkscape:current-layer="layer1"
     showgrid="false"
     inkscape:window-width="1855"
     inkscape:window-height="1056"
     inkscape:window-x="65"
     inkscape:window-y="24"
     inkscape:window-maximized="1" />
  <metadata
     id="metadata7">
    <rdf:RDF>
      <cc:Work
         rdf:about="">
        <dc:format>image/svg+xml</dc:format>
        <dc:type
           rdf:resource="http://purl.org/dc/dcmitype/StillImage" />
        <dc:title></dc:title>
      </cc:Work>
    </rdf:RDF>
  </metadata>
  <g
     inkscape:label="Layer 1"
     inkscape:groupmode="layer"
     id="layer1">
    <path
       style="fill:none;stroke:#000000;stroke-width:1px;stroke-linecap:butt;stroke-linejoin:miter;stroke-opacity:1"
       d="m 282.63393,180.30861 -15.44643,0 0,14.59821 2.58929,-0.89285 2.8125,-0.44643 2.23214,-0.0447 1.65179,0.49108 1.74107,0.58035 1.16071,1.16072 0.98214,1.38393 0.58036,2.05357 -0.0446,2.09821 -0.58036,1.96429 -1.42857,1.74107 -1.78571,1.11607 -2.32143,0.58036 -2.45536,0.0446 -2.63393,-0.35714 -1.875,-0.71429 -1.875,-0.84821 -0.0893,3.83929 2.14286,0.80356 3.34821,0.71429 3.97322,0.13393 3.66072,-1.07143 2.5,-1.38393 1.875,-2.05357 1.02678,-2.23214 0.44643,-2.8125 -0.13393,-2.36607 -0.75893,-2.8125 -1.38393,-2.14286 -2.1875,-1.78572 -2.5,-0.98214 -2.36607,-0.40178 -2.1875,0 -1.47321,0.22321 -1.02679,0.35714 -0.0446,-7.23214 11.875,0.0446 z"
       id="path3011"
       inkscape:connector-curvature="0"
       sodipodi:nodetypes="ccccccccccccccccccccccccccccccccccccccccc" />
  </g>
</svg>
