<?xml version="1.0" encoding="UTF-8" standalone="no"?>
<!-- Created with Inkscape (http://www.inkscape.org/) -->

<svg
   xmlns:dc="http://purl.org/dc/elements/1.1/"
   xmlns:cc="http://creativecommons.org/ns#"
   xmlns:rdf="http://www.w3.org/1999/02/22-rdf-syntax-ns#"
   xmlns:svg="http://www.w3.org/2000/svg"
   xmlns="http://www.w3.org/2000/svg"
   xmlns:sodipodi="http://sodipodi.sourceforge.net/DTD/sodipodi-0.dtd"
   xmlns:inkscape="http://www.inkscape.org/namespaces/inkscape"
   width="744.09448819"
   height="1052.3622047"
   id="svg3013"
   version="1.1"
   inkscape:version="0.48.4 r9939"
   sodipodi:docname="8.svg">
  <defs
     id="defs3015" />
  <sodipodi:namedview
     id="base"
     pagecolor="#ffffff"
     bordercolor="#666666"
     borderopacity="1.0"
     inkscape:pageopacity="0.0"
     inkscape:pageshadow="2"
     inkscape:zoom="16"
     inkscape:cx="256.76696"
     inkscape:cy="932.98327"
     inkscape:document-units="px"
     inkscape:current-layer="layer1"
     showgrid="false"
     inkscape:window-width="1855"
     inkscape:window-height="1056"
     inkscape:window-x="65"
     inkscape:window-y="24"
     inkscape:window-maximized="1" />
  <metadata
     id="metadata3018">
    <rdf:RDF>
      <cc:Work
         rdf:about="">
        <dc:format>image/svg+xml</dc:format>
        <dc:type
           rdf:resource="http://purl.org/dc/dcmitype/StillImage" />
        <dc:title></dc:title>
      </cc:Work>
    </rdf:RDF>
  </metadata>
  <g
     inkscape:label="Layer 1"
     inkscape:groupmode="layer"
     id="layer1">
    <text
       xml:space="preserve"
       style="font-size:40px;font-style:normal;font-variant:normal;font-weight:normal;font-stretch:normal;line-height:125%;letter-spacing:0px;word-spacing:0px;fill:#000000;fill-opacity:1;stroke:none;font-family:Ubuntu;-inkscape-font-specification:Ubuntu"
       x="140"
       y="143.79076"
       id="text3021"
       sodipodi:linespacing="125%"><tspan
         sodipodi:role="line"
         id="tspan3023"
         x="140"
         y="143.79076" /></text>
    <path
       style="fill:none;stroke:#000000;stroke-width:1px;stroke-linecap:butt;stroke-linejoin:miter;stroke-opacity:1"
       d="m 282.875,120.79968 -3.3125,2.0625 -3.5,2.9375 -2.75,3.5625 -1.4375,3.375 -0.75,4.3125 0.375,4.125 2.0625,4.4375 2.75,2.9375 3.5625,2.0625 3.4375,1.1875 3.4375,0.3125 3.75,-0.4375 5,-1.5625 3.75,-2.625 2.5,-3.8125 0.9375,-3.5625 -0.5625,-3.9375 -2.3125,-3.9375 -3.5,-2.75 -18.125,-11.625 -4.375,-3.3125 -2.625,-3 -1.5,-3.1875 -0.8125,-4.1875 0.4375,-4.874997 1.9375,-4.5625 3.0625,-3.625 4.1875,-2.6875 5.1875,-1.625 5.1875,-0.375 6.375,1.625 4.375,2.5625 3.5,3.875 1.5625,4.5625 0.125,2.812497 -0.75,3.625 -1.9375,3.8125 -3.0625,3.25 -3.125,2.375 -3.25,1.75 -2.1875,-1.5625 3.1875,-2.0625 2.1875,-1.9375 2.25,-2.5625 1.5625,-2.625 0.8125,-3.0625 -0.0625,-3.562497 -1.25,-3.6875 -2.5625,-3.1875 -3.4375,-2.1875 -3.875,-1.125 -2.8125,-0.1875 -4,0.5 -3.75,1.4375 -3,2.0625 -1.875,2.9375 -0.75,2.6875 0.4375,3.312497 1.125,2.1875 2.125,2.3125 22.8125,14.6875 2.5,2.125 2.1875,2.8125 2.125,3.875 1.0625,4.9375 -0.4375,5.1875 -1.5,4.0625 -2.5,3.625 -3.1875,2.9375 -4.3125,2.5625 -5.125,1.4375 -5.0625,0.1875 -4.6875,-0.625 -3.75,-1.3125 -3.625,-2.0625 -3,-2.5 -1.875,-2.375 -1.4375,-3.125 -0.75,-3.4375 0.0625,-4.0625 1.1875,-4.1875 2.6875,-4.3125 4.1875,-3.75 4.875,-3 1.375,-0.75 z"
       id="path3045"
       inkscape:connector-curvature="0" />
  </g>
</svg>