<?xml version="1.0" encoding="UTF-8" standalone="no"?>
<!-- Created with Inkscape (http://www.inkscape.org/) -->

<svg
   xmlns:dc="http://purl.org/dc/elements/1.1/"
   xmlns:cc="http://creativecommons.org/ns#"
   xmlns:rdf="http://www.w3.org/1999/02/22-rdf-syntax-ns#"
   xmlns:svg="http://www.w3.org/2000/svg"
   xmlns="http://www.w3.org/2000/svg"
   xmlns:sodipodi="http://sodipodi.sourceforge.net/DTD/sodipodi-0.dtd"
   xmlns:inkscape="http://www.inkscape.org/namespaces/inkscape"
   width="744.09448819"
   height="1052.3622047"
   id="svg2"
   version="1.1"
   inkscape:version="0.48.4 r9939"
   sodipodi:docname="bmf.svg">
  <defs
     id="defs4" />
  <sodipodi:namedview
     id="base"
     pagecolor="#ffffff"
     bordercolor="#666666"
     borderopacity="1.0"
     inkscape:pageopacity="0.0"
     inkscape:pageshadow="2"
     inkscape:zoom="3.959798"
     inkscape:cx="289.7906"
     inkscape:cy="568.39894"
     inkscape:document-units="px"
     inkscape:current-layer="layer1"
     showgrid="false"
     inkscape:window-width="1855"
     inkscape:window-height="1056"
     inkscape:window-x="65"
     inkscape:window-y="24"
     inkscape:window-maximized="1" />
  <metadata
     id="metadata7">
    <rdf:RDF>
      <cc:Work
         rdf:about="">
        <dc:format>image/svg+xml</dc:format>
        <dc:type
           rdf:resource="http://purl.org/dc/dcmitype/StillImage" />
        <dc:title></dc:title>
      </cc:Work>
    </rdf:RDF>
  </metadata>
  <g
     inkscape:label="Layer 1"
     inkscape:groupmode="layer"
     id="layer1">
    <text
       xml:space="preserve"
       style="font-size:40px;font-style:normal;font-variant:normal;font-weight:normal;font-stretch:normal;line-height:125%;letter-spacing:0px;word-spacing:0px;fill:#000000;fill-opacity:1;stroke:none;font-family:KacstQurn;-inkscape-font-specification:KacstQurn"
       x="211.42857"
       y="498.07648"
       id="text3043"
       sodipodi:linespacing="125%"><tspan
         sodipodi:role="line"
         id="tspan3045"
         x="211.42857"
         y="498.07648"
         style="font-size:100px;-inkscape-font-specification:Mukti Narrow;font-family:Mukti Narrow;font-weight:normal;font-style:italic;font-stretch:normal;font-variant:normal">BMF</tspan></text>
    <path
       style="fill:none;stroke:#000000;stroke-width:1px;stroke-linecap:butt;stroke-linejoin:miter;stroke-opacity:1"
       d="m 219.45564,497.78843 14.89975,-72.98352 34.09265,0.25254 11.11168,6.06092 2.52538,12.37437 -4.79823,9.34391 -9.34391,6.81853 7.32361,4.54568 3.53553,7.82868 -2.0203,10.35407 -4.79823,7.57614 -8.08122,5.3033 -6.81853,2.27285 -36.36549,0.25253 9.59645,-7.82868 11.36422,-57.07362 20.96066,0.75762 7.07107,2.0203 2.52538,6.06092 -1.76777,6.56599 -3.78807,5.05076 -3.53553,2.27285 -6.31346,0.50507 -19.44543,0.50508 -2.27284,8.5863 26.5165,-0.25254 4.54569,2.27284 3.28299,7.07107 -2.0203,8.33376 -7.07107,5.55584 -5.55584,2.0203 -24.24366,-0.50508 -9.84899,8.33376 65.40738,0 14.39467,-73.23606 13.38452,0.75762 7.82869,62.37692 34.59772,-63.13454 12.87945,1.01016 -15.15229,72.47844 -8.33376,-0.25254 11.86929,-59.85154 -32.07234,59.34647 -9.84899,0.50507 -8.33376,-61.36676 -12.6269,61.36676 -8.5863,-0.50507 93.69165,0.25253 6.56599,-32.82995 35.1028,0 1.26269,-8.83884 -34.09265,0.25254 3.78807,-23.23351 39.90103,0 1.51523,-8.33376 -48.73986,0.25254 -14.64721,72.98352"
       id="path3049"
       inkscape:connector-curvature="0" />
  </g>
</svg>
