<?xml version="1.0" encoding="UTF-8" standalone="no"?>
<!-- Created with Inkscape (http://www.inkscape.org/) -->

<svg
   xmlns:dc="http://purl.org/dc/elements/1.1/"
   xmlns:cc="http://creativecommons.org/ns#"
   xmlns:rdf="http://www.w3.org/1999/02/22-rdf-syntax-ns#"
   xmlns:svg="http://www.w3.org/2000/svg"
   xmlns="http://www.w3.org/2000/svg"
   xmlns:xlink="http://www.w3.org/1999/xlink"
   xmlns:sodipodi="http://sodipodi.sourceforge.net/DTD/sodipodi-0.dtd"
   xmlns:inkscape="http://www.inkscape.org/namespaces/inkscape"
   width="744.09448819"
   height="1052.3622047"
   id="svg2"
   version="1.1"
   inkscape:version="0.48.4 r9939"
   sodipodi:docname="butt.svg">
  <defs
     id="defs4" />
  <sodipodi:namedview
     id="base"
     pagecolor="#ffffff"
     bordercolor="#666666"
     borderopacity="1.0"
     inkscape:pageopacity="0.0"
     inkscape:pageshadow="2"
     inkscape:zoom="1.4"
     inkscape:cx="281.41957"
     inkscape:cy="505.0814"
     inkscape:document-units="px"
     inkscape:current-layer="layer1"
     showgrid="false"
     inkscape:window-width="1855"
     inkscape:window-height="1056"
     inkscape:window-x="65"
     inkscape:window-y="24"
     inkscape:window-maximized="1" />
  <metadata
     id="metadata7">
    <rdf:RDF>
      <cc:Work
         rdf:about="">
        <dc:format>image/svg+xml</dc:format>
        <dc:type
           rdf:resource="http://purl.org/dc/dcmitype/StillImage" />
        <dc:title></dc:title>
      </cc:Work>
    </rdf:RDF>
  </metadata>
  <g
     inkscape:label="Layer 1"
     inkscape:groupmode="layer"
     id="layer1">
    <path
       style="fill:none;stroke:#000000;stroke-width:1px;stroke-linecap:butt;stroke-linejoin:miter;stroke-opacity:1"
       d="m 276.42857,317.36218 6.42857,12.85714 4.28572,14.28572 -0.71429,17.14286 -5.71428,14.28571 L 270,393.07647 l -20.71429,23.57143 -20.71428,20.71428 -17.85714,20.71429 -12.14286,20 -7.14286,13.57143 -6.42857,17.85714 -3.57143,12.85714 -2.85714,15.71429 -1.42857,14.28571 1.42857,18.57143 5.71428,21.42857 6.42858,17.85715 7.14285,16.42857 10,14.28571 12.85715,14.28572 12.14285,9.28571 7.14286,4.28571 17.14286,7.85715 23.57143,7.85714 24.28571,6.42857 18.57143,3.57143 -25,-4.28572 -25.17857,-7.14285 -22.85715,-8.21429 -10.71428,-5.17857 -0.89286,13.75 5,26.78571 5.71429,11.96429 7.5,18.75 11.42857,22.5 138.03571,-0.89286 -0.89285,-45 3.03571,-16.42857 0.53572,-11.07143 -2.14286,-11.07143 -2.32143,-12.14285 -1.07143,-6.42857 -11.25,-7.32143 -7.32143,-7.32143 -9.28571,-11.78572 -7.14286,-11.78571 -4.10714,-11.60714 -2.67857,-12.5 -3.21429,-14.82143 -2.14286,-13.21429 -0.53571,-14.28571 0.35714,-15 0.71429,-12.14286 1.78571,-11.60714 2.67857,-12.5 3.92858,-11.07143 5,-9.28571 7.67857,-9.10715 -6.96429,9.46429 -5,9.64286 -3.39286,10.53571 -3.03571,10.89286 -1.25,12.14285 -1.42857,11.42858 -0.35714,18.39285 0.53571,12.5 2.14286,10.71429 2.67857,14.28571 3.39286,12.5 3.39285,12.32143 6.07143,10 7.5,10.89286 7.85714,8.57143 9.28572,6.60714 9.10714,6.42857 12.14286,5.35714 10.35714,2.32143 8.39286,1.25 9.28571,1.42857 6.78572,-0.53571 -9.46429,-0.35714 -12.14286,-1.96429 -14.64285,-3.92857 -14.28572,-5 4.82143,29.10714 4.28572,14.10715 3.21428,9.10714 6.60714,49.28571 105.17858,0 6.25,-12.14285 7.85714,-15.53572 11.25,-26.78571 7.67857,-19.46429 5.71429,-18.75 5.17857,-17.5 4.46428,-22.14286 2.5,-19.46428 3.03572,-41.60714 0.35714,-22.85715 -1.42857,-30.35714 -1.07143,-28.92857 -7.14286,-35.35714 -5,-22.5 -8.57143,-25 -8.57142,-23.21429 -10.71429,-25.35714 -9.64286,-22.14286 -7.14285,-18.57143 -3.57143,-10.71428 0,-14.28572 z"
       id="path3109"
       inkscape:connector-curvature="0" />
  </g>
</svg>
